<?xml version="1.0" encoding="utf-8" ?>
<svg xmlns="http://www.w3.org/2000/svg" xmlns:xlink="http://www.w3.org/1999/xlink" width="1024" height="1024">
	<path fill="#627254" transform="scale(2 2)" d="M107.454 74.5159L390.661 74.5047C410.919 74.494 428.527 77.5593 435.051 100.932C436.87 107.445 436.171 114.696 436.163 121.411L436.157 377.916C436.157 405.406 438.264 427.298 404.566 436.458C396.641 436.318 388.687 436.454 380.76 436.454L119.571 436.472C98.4292 436.474 79.3116 428.517 76.7141 404.252C75.9801 397.395 76.2639 390.364 76.2627 383.477L76.2641 118.899C76.2638 113.968 75.8729 108.649 76.4024 103.762C78.1591 87.5509 91.6032 76.152 107.454 74.5159ZM98.8105 418.589C102.355 418.379 112.038 419.874 117.7 419.849L373.925 419.837C392.193 419.854 413.684 422.311 418.341 397.837C419.475 391.881 418.847 383.053 418.841 376.781L418.803 99.3747C418.772 97.0879 418.46 94.8323 418.844 92.5566C415.726 90.7678 407.204 91.8531 403.527 91.8558L133.924 91.8488C120.992 91.8471 104.767 89.1642 97.2096 102.492C92.5823 110.653 94.2488 124.598 94.2501 133.717L94.2516 385.375C94.2492 395.83 92.7041 409.341 98.8105 418.589ZM107.454 429.693L107.53 429.529C107.516 429.362 100.106 420.799 98.8105 418.589C92.7041 409.341 94.2492 395.83 94.2516 385.375L94.2501 133.717C94.2488 124.598 92.5823 110.653 97.2096 102.492C104.767 89.1642 120.992 91.8471 133.924 91.8488L403.527 91.8558C407.204 91.8531 415.726 90.7678 418.844 92.5566C420.712 93.3172 425.443 97.0271 426.093 97.1583C416.429 78.8799 399.078 81.4142 381.555 81.4284L127.31 81.4276C110.052 81.417 90.5318 79.2243 84.129 100.674C82.4618 106.259 83.2191 115.632 83.2294 121.712L83.2302 383.155C83.1942 407.033 81.6973 420.017 107.454 429.693Z"/>
	<path fill="#A5A5A5" transform="scale(2 2)" d="M418.844 92.5566C420.712 93.3172 425.443 97.0271 426.093 97.1583C431 103.872 429.208 123.443 429.208 131.525L429.209 390.617C429.208 408.917 425.327 427.669 402.275 429.585C396.132 430.095 389.66 429.705 383.484 429.704L110.49 429.593C109.522 429.597 108.398 429.804 107.454 429.693L107.53 429.529C107.516 429.362 100.106 420.799 98.8105 418.589C102.355 418.379 112.038 419.874 117.7 419.849L373.925 419.837C392.193 419.854 413.684 422.311 418.341 397.837C419.475 391.881 418.847 383.053 418.841 376.781L418.803 99.3747C418.772 97.0879 418.46 94.8323 418.844 92.5566Z"/>
	<path fill="#DDD" transform="scale(2 2)" d="M98.8105 418.589C92.7041 409.341 94.2492 395.83 94.2516 385.375L94.2501 133.717C94.2488 124.598 92.5823 110.653 97.2096 102.492C104.767 89.1642 120.992 91.8471 133.924 91.8488L403.527 91.8558C407.204 91.8531 415.726 90.7678 418.844 92.5566C418.46 94.8323 418.772 97.0879 418.803 99.3747L418.841 376.781C418.847 383.053 419.475 391.881 418.341 397.837C413.684 422.311 392.193 419.854 373.925 419.837L117.7 419.849C112.038 419.874 102.355 418.379 98.8105 418.589ZM143.489 105.111C124.784 105.53 123.996 117.559 126.943 133.031L133.797 171.424C137.524 192.528 138.938 202.54 162.066 202.538L340.955 202.534C349.255 202.544 359.393 204.128 366.82 199.659C373.118 195.414 375.076 190.25 376.488 183.012L384.575 140.088C386.182 131.297 390.279 121.047 384.718 112.855C377.614 102.39 364.216 105.099 353.366 105.103L143.489 105.111ZM182.035 232.07C165.76 234.423 176.198 250.947 179.876 259.405C185.022 271.239 190.449 282.964 195.288 294.927C191.124 309.567 192.161 317.639 194.906 332.164L203.173 378.609C204.119 383.999 205.012 395.443 207.613 400.047C212.438 408.589 222.887 406.436 231.096 406.433L282.03 406.437C293.188 406.461 302.31 408.91 305.211 394.881L309.213 375.013C310.328 369.322 311.206 363.513 313.249 358.067C312.943 353.798 314.579 348.716 315.422 344.492C319.342 324.849 322.387 314.281 317.304 294.15C322.444 281.036 328.311 268.161 333.721 255.149C335.854 250.018 340.803 243.167 338.173 237.422C332.529 225.091 320.507 236.924 314.845 241.447C297.957 254.935 288.249 248.454 273.728 239.79C258.048 230.433 245.566 235.688 232.259 244.074C207.014 259.983 192.404 231.624 182.035 232.07Z"/>
	<path fill="#627254" transform="scale(2 2)" d="M355.981 285.764C360.255 284.646 364.419 291.352 367.439 294.491L380.645 307.98L394.317 307.947C397.867 307.943 411.955 308.392 403.464 314.869C395.453 315.299 386.342 314.894 378.204 314.869C375.77 313.43 354.759 291.887 353.695 289.719C352.717 287.726 354.431 286.56 355.981 285.764Z"/>
	<path fill="#627254" transform="scale(2 2)" d="M355.981 326.745C360.74 326.942 376.271 345.465 380.645 349.692C384.815 349.502 398.856 349.076 402.685 349.689C406.755 350.341 405.777 354.788 403.464 356.808C395.151 356.488 386.519 356.554 378.204 356.808C374.062 353.36 356.871 336.234 353.929 331.942C352.561 329.947 354.302 327.803 355.981 326.745Z"/>
	<path fill="#627254" transform="scale(2 2)" d="M153.003 329.021C165.542 329.487 148.018 343.451 145.692 345.863C142.589 349.08 138.209 354.333 134.832 356.808C126.474 356.954 118.092 356.818 109.731 356.808C103.631 356.699 103.978 350.707 108.462 349.927C111.262 349.439 114.346 349.673 117.189 349.673L132.05 349.692C137.447 344.797 147.721 332.249 153.003 329.021Z"/>
	<path fill="#627254" transform="scale(2 2)" d="M154.266 285.764C157.609 285.295 160.283 287.994 158.062 291.2C153.585 297.667 140.696 309.275 134.832 315.472L108.688 315.472C103.728 315.258 102.817 309.642 107.719 308.94C110.525 308.538 113.554 308.764 116.397 308.766L132.05 308.79C134.285 305.633 151.429 287.493 154.266 285.764Z"/>
	<path fill="#627254" transform="scale(2 2)" d="M182.035 232.07C192.404 231.624 207.014 259.983 232.259 244.074C245.566 235.688 258.048 230.433 273.728 239.79C288.249 248.454 297.957 254.935 314.845 241.447C320.507 236.924 332.529 225.091 338.173 237.422C340.803 243.167 335.854 250.018 333.721 255.149C328.311 268.161 322.444 281.036 317.304 294.15C322.387 314.281 319.342 324.849 315.422 344.492C314.579 348.716 312.943 353.798 313.249 358.067C311.206 363.513 310.328 369.322 309.213 375.013L305.211 394.881C302.31 408.91 293.188 406.461 282.03 406.437L231.096 406.433C222.887 406.436 212.438 408.589 207.613 400.047C205.012 395.443 204.119 383.999 203.173 378.609L194.906 332.164C192.161 317.639 191.124 309.567 195.288 294.927C190.449 282.964 185.022 271.239 179.876 259.405C176.198 250.947 165.76 234.423 182.035 232.07ZM182.035 239.025C180.052 239.594 179.723 240.381 180.358 242.343C184.469 255.042 194.172 276.008 199.968 288.24L202.788 294.15C195.779 316.693 202.323 334.331 206.321 356.835L210.84 382.324C211.92 388.557 211.003 395.495 216.534 399.383L252.753 399.383L252.739 345.687C252.739 343.537 252.582 341.233 252.83 339.1C253.149 336.352 256.51 334.009 258.755 336.462C260.558 338.432 259.759 342.573 259.756 344.992L259.768 399.383L284.546 399.394C288.073 399.399 292.077 399.867 295.532 399.383C299.039 397.159 304.864 361.577 306.12 355.67C309.031 341.994 314.901 322.245 313.055 308.29C310.708 290.545 307.907 298.346 315.097 281.687C317.483 276.156 331.674 243.305 331.839 240.591C329.354 237.051 325.714 241.849 323.671 243.554C309.748 255.174 292.39 260.859 276.166 249.891C257.872 237.524 252.082 240.365 234.731 250.889C220.102 259.763 204.204 255.581 191.427 245.677C188.731 243.588 185.383 239.766 182.035 239.025Z"/>
	<path fill="#627254" transform="scale(2 2)" d="M143.489 105.111L353.366 105.103C364.216 105.099 377.614 102.39 384.718 112.855C390.279 121.047 386.182 131.297 384.575 140.088L376.488 183.012C375.076 190.25 373.118 195.414 366.82 199.659C359.393 204.128 349.255 202.544 340.955 202.534L162.066 202.538C138.938 202.54 137.524 192.528 133.797 171.424L126.943 133.031C123.996 117.559 124.784 105.53 143.489 105.111ZM259.768 112.249C259.553 115.577 260.802 122.578 255.753 122.361C250.888 122.152 252.339 115.322 252.753 112.249L178.215 112.244C165.781 112.243 153.245 111.903 140.82 112.249C126.403 115.301 134.337 134.237 136.192 144.808L140.988 170.952C144.282 189.164 143.45 195.459 163.434 195.388L218.751 195.364C218.084 174.172 232.264 159.433 252.753 156.75C252.765 150.887 251.937 141.556 252.27 136.336C252.46 133.342 256.54 131.813 258.473 134.3C261.067 137.637 259.189 151.819 259.768 156.75C279.553 159.541 292.817 175.417 292.186 195.364C301.443 195.218 310.717 195.368 319.976 195.364L345.668 195.377C366.681 195.377 367.104 194.915 370.949 174.706L379.218 131.622C383.492 109.004 372.75 112.243 354.525 112.244L280.512 112.246C273.646 112.245 266.607 111.875 259.768 112.249Z"/>
	<path fill="#A5A5A5" transform="scale(2 2)" d="M252.753 163.839C272.146 160.869 285.112 176.926 285.288 195.364L259.768 195.364L225.459 195.364C226.178 178.81 235.589 165.89 252.753 163.839Z"/>
	<path fill="#627254" transform="scale(2 2)" d="M302.152 127.279C304.821 127.244 310.631 126.824 312.974 127.393C317.075 128.389 318.08 132.309 313.938 134.392C310.549 134.396 296.604 136.55 299.924 129.058C300.387 128.013 301.134 127.676 302.152 127.279Z"/>
	<path fill="#627254" transform="scale(2 2)" d="M175.071 173.192C178.276 173.28 182.851 172.225 185.832 173.215C189.862 174.554 189.198 178.935 185.742 180.364C182.191 180.177 175.305 181.032 172.36 179.009C169.541 177.073 171.085 173.605 175.071 173.192Z"/>
	<path fill="#627254" transform="scale(2 2)" d="M327.298 173.192C330.778 173.165 343.917 171.172 342.679 177.553C342.422 178.883 341.648 179.609 340.585 180.364C336.536 181.023 318.056 180.979 327.298 173.192Z"/>
	<path fill="#627254" transform="scale(2 2)" d="M185.742 149.569C188.919 149.602 195.424 148.71 198.09 150.148C201.596 152.039 199.769 156.02 196.562 156.75C193.476 156.769 186.464 157.462 183.964 155.964C180.62 153.962 182.424 150.01 185.742 149.569Z"/>
	<path fill="#627254" transform="scale(2 2)" d="M206.417 127.279C210.978 126.829 215.352 129.789 211.909 133.127C209.914 135.062 204.352 134.408 201.712 134.392C198.127 134.352 191.552 131.914 195.43 128.25C197.546 126.25 203.694 127.177 206.417 127.279Z"/>
	<path fill="#627254" transform="scale(2 2)" d="M315.785 149.569C338.549 148.37 328.869 156.32 327.298 156.75C324.136 156.779 315.951 157.579 313.432 155.726C310.468 153.546 312.815 149.94 315.785 149.569Z"/>
</svg>

